<?xml version="1.0" encoding="utf-8"?>
<svg xmlns="http://www.w3.org/2000/svg"
	xmlns:xlink="http://www.w3.org/1999/xlink"
	width="88px" height="82px" viewBox="0 0 44 41">
<path fillRule="evenodd" d="M 43.96 9.66C 43.96 9.66 40.94 24.43 40.94 24.43 40.73 25.43 39.84 26.16 38.82 26.16 38.82 26.16 12.1 26.16 12.1 26.16 12.1 26.16 12.74 29.27 12.74 29.27 12.74 29.27 38.62 29.27 38.62 29.27 39.22 29.27 39.7 29.76 39.7 30.36 39.7 30.96 39.22 31.45 38.62 31.45 38.62 31.45 12.74 31.45 12.74 31.45 11.72 31.45 10.83 30.72 10.62 29.71 10.62 29.71 5.39 4.16 5.39 4.16 5.39 4.16 0.65 2.09 0.65 2.09 0.1 1.85-0.15 1.21 0.09 0.66 0.33 0.11 0.96-0.15 1.51 0.09 1.51 0.09 6.25 2.17 6.25 2.17 6.9 2.45 7.37 3.03 7.51 3.72 7.51 3.72 8.19 7.04 8.19 7.04 8.19 7.04 41.84 7.04 41.84 7.04 42.49 7.04 43.1 7.34 43.52 7.85 43.93 8.35 44.09 9.02 43.96 9.66ZM 8.63 9.22C 8.63 9.22 11.66 23.99 11.66 23.99 11.66 23.99 38.82 23.99 38.82 23.99 38.82 23.99 41.84 9.22 41.84 9.22 41.84 9.22 8.63 9.22 8.63 9.22ZM 32.98 14.87C 32.98 14.87 17.5 14.87 17.5 14.87 16.9 14.87 16.41 14.38 16.41 13.78 16.41 13.18 16.9 12.69 17.5 12.69 17.5 12.69 32.98 12.69 32.98 12.69 33.57 12.69 34.06 13.18 34.06 13.78 34.06 14.38 33.57 14.87 32.98 14.87ZM 18.34 18.34C 18.34 18.34 32.13 18.34 32.13 18.34 32.73 18.34 33.21 18.83 33.21 19.43 33.21 20.03 32.73 20.52 32.13 20.52 32.13 20.52 18.34 20.52 18.34 20.52 17.74 20.52 17.26 20.03 17.26 19.43 17.26 18.83 17.74 18.34 18.34 18.34ZM 18.45 33.21C 20.58 33.21 22.32 34.95 22.32 37.1 22.32 39.25 20.58 41 18.45 41 16.32 41 14.58 39.25 14.58 37.1 14.58 34.95 16.32 33.21 18.45 33.21ZM 18.45 38.82C 19.39 38.82 20.16 38.05 20.16 37.1 20.16 36.15 19.39 35.38 18.45 35.38 17.51 35.38 16.74 36.15 16.74 37.1 16.74 38.05 17.51 38.82 18.45 38.82ZM 32.02 33.21C 34.16 33.21 35.89 34.95 35.89 37.1 35.89 39.25 34.16 41 32.02 41 29.89 41 28.15 39.25 28.15 37.1 28.15 34.95 29.89 33.21 32.02 33.21ZM 32.02 38.82C 32.97 38.82 33.73 38.05 33.73 37.1 33.73 36.15 32.97 35.38 32.02 35.38 31.08 35.38 30.32 36.15 30.32 37.1 30.32 38.05 31.08 38.82 32.02 38.82Z" fill="rgb(83,95,117)"/></svg>