<?xml version="1.0" encoding="utf-8"?>
<svg xmlns="http://www.w3.org/2000/svg"
	xmlns:xlink="http://www.w3.org/1999/xlink"
	width="88px" height="88px" viewBox="0 0 44 44">
<path fillRule="evenodd" d="M 37.56 37.56C 33.4 41.72 27.88 44 22 44 16.12 44 10.6 41.72 6.44 37.56 2.28 33.4-0 27.88-0 22-0 16.12 2.28 10.6 6.44 6.44 10.6 2.28 16.12-0 22-0 27.88-0 33.4 2.28 37.56 6.44 41.72 10.6 44 16.12 44 22 44 27.88 41.72 33.4 37.56 37.56ZM 22 2.25C 11.11 2.25 2.25 11.11 2.25 22 2.25 32.89 11.11 41.75 22 41.75 32.89 41.75 41.75 32.89 41.75 22 41.75 11.11 32.89 2.25 22 2.25ZM 20.37 20.88C 20.37 20.88 23.64 20.88 23.64 20.88 26.23 20.88 28.34 22.98 28.34 25.59 28.34 28.16 26.26 30.26 23.69 30.29 23.69 30.29 23.68 30.29 23.67 30.29 23.67 30.29 23.12 30.29 23.12 30.29 23.12 30.29 23.12 32.63 23.12 32.63 23.12 33.25 22.62 33.76 22 33.76 21.38 33.76 20.88 33.25 20.88 32.63 20.88 32.63 20.88 30.29 20.88 30.29 20.88 30.29 17.77 30.29 17.77 30.29 17.15 30.29 16.65 29.79 16.65 29.17 16.65 28.55 17.15 28.05 17.77 28.05 17.77 28.05 23.64 28.05 23.64 28.05 25 28.05 26.1 26.94 26.1 25.59 26.1 24.23 25 23.12 23.64 23.12 23.64 23.12 20.37 23.12 20.37 23.12 17.78 23.12 15.66 21.01 15.66 18.41 15.66 15.82 17.78 13.71 20.37 13.71 20.37 13.71 20.89 13.71 20.89 13.71 20.89 13.71 20.89 11.41 20.89 11.41 20.89 10.79 21.39 10.29 22.01 10.29 22.63 10.29 23.13 10.79 23.13 11.41 23.13 11.41 23.13 13.71 23.13 13.71 23.13 13.71 26.14 13.71 26.14 13.71 26.76 13.71 27.26 14.21 27.26 14.83 27.26 15.45 26.76 15.95 26.14 15.95 26.14 15.95 20.37 15.95 20.37 15.95 19.01 15.95 17.91 17.06 17.91 18.41 17.91 19.77 19.01 20.88 20.37 20.88Z" fill="rgb(255,255,255)"/></svg>