<?xml version="1.0" encoding="utf-8"?>
<svg xmlns="http://www.w3.org/2000/svg"
	xmlns:xlink="http://www.w3.org/1999/xlink"
	width="88px" height="76px" viewBox="0 0 44 38">
<path fillRule="evenodd" d="M 42.89 20.08C 42.89 20.08 15.8 20.08 15.8 20.08 15.19 20.08 14.7 19.6 14.7 19 14.7 18.4 15.19 17.92 15.8 17.92 15.8 17.92 42.89 17.92 42.89 17.92 43.51 17.92 44 18.4 44 19 44 19.6 43.51 20.08 42.89 20.08ZM 42.89 5.73C 42.89 5.73 15.8 5.73 15.8 5.73 15.19 5.73 14.7 5.24 14.7 4.64 14.7 4.04 15.19 3.56 15.8 3.56 15.8 3.56 42.89 3.56 42.89 3.56 43.51 3.56 44 4.04 44 4.64 44 5.24 43.51 5.73 42.89 5.73ZM 4.74 38C 2.13 38-0 35.91-0 33.36-0 30.8 2.13 28.71 4.74 28.71 7.34 28.71 9.47 30.79 9.47 33.36 9.47 35.91 7.35 38 4.74 38ZM 4.74 30.86C 3.34 30.86 2.2 31.98 2.2 33.35 2.2 34.71 3.34 35.83 4.74 35.83 6.13 35.83 7.27 34.72 7.27 33.35 7.27 31.98 6.14 30.86 4.74 30.86ZM 4.74 23.64C 2.13 23.64-0 21.56-0 19-0 16.44 2.12 14.36 4.74 14.36 7.35 14.36 9.47 16.44 9.47 19 9.47 21.56 7.35 23.64 4.74 23.64ZM 4.74 16.51C 3.34 16.51 2.2 17.63 2.2 19 2.2 20.37 3.34 21.49 4.74 21.49 6.13 21.49 7.27 20.37 7.27 19 7.27 17.63 6.14 16.51 4.74 16.51ZM 4.74 9.3C 2.13 9.3-0 7.2-0 4.64-0 2.09 2.12-0 4.74-0 7.35-0 9.47 2.1 9.47 4.65 9.47 7.21 7.35 9.3 4.74 9.3ZM 4.74 2.16C 3.34 2.16 2.2 3.28 2.2 4.64 2.2 6.01 3.34 7.13 4.74 7.13 6.13 7.13 7.27 6.01 7.27 4.64 7.27 3.28 6.14 2.16 4.74 2.16ZM 15.8 32.26C 15.8 32.26 42.89 32.26 42.89 32.26 43.51 32.26 44 32.75 44 33.35 44 33.95 43.51 34.43 42.89 34.43 42.89 34.43 15.8 34.43 15.8 34.43 15.19 34.43 14.7 33.95 14.7 33.35 14.7 32.75 15.19 32.26 15.8 32.26Z" fill="rgb(83,95,117)"/></svg>