<?xml version="1.0" encoding="utf-8"?>
<svg xmlns="http://www.w3.org/2000/svg"
	xmlns:xlink="http://www.w3.org/1999/xlink"
	width="88px" height="88px" viewBox="0 0 44 44">
<path fillRule="evenodd" d="M 40.31 7.39C 39.62 7.39 38.99 7.19 38.44 6.87 38.44 6.87 25.64 19.7 25.64 19.7 25.95 20.25 26.15 20.87 26.15 21.55 26.15 23.59 24.5 25.24 22.45 25.24 20.41 25.24 18.76 23.59 18.76 21.55 18.76 20.87 18.96 20.24 19.27 19.69 19.27 19.69 16.52 16.95 16.52 16.95 15.98 17.26 15.35 17.46 14.67 17.46 14 17.46 13.37 17.27 12.83 16.95 12.83 16.95 6.88 22.9 6.88 22.9 7.19 23.45 7.39 24.07 7.39 24.74 7.39 26.79 5.74 28.44 3.69 28.44 1.65 28.44-0 26.79-0 24.74-0 22.7 1.65 21.05 3.69 21.05 4.37 21.05 4.99 21.24 5.54 21.56 5.54 21.56 11.49 15.61 11.49 15.61 11.17 15.07 10.98 14.44 10.98 13.77 10.98 11.72 12.63 10.07 14.67 10.07 16.72 10.07 18.36 11.72 18.36 13.77 18.36 14.44 18.17 15.06 17.86 15.6 17.86 15.6 20.62 18.35 20.62 18.35 21.16 18.04 21.78 17.85 22.45 17.85 23.13 17.85 23.75 18.05 24.29 18.36 24.29 18.36 37.11 5.52 37.11 5.52 36.8 4.98 36.61 4.36 36.61 3.69 36.61 1.65 38.26-0 40.31-0 42.35-0 44 1.65 44 3.69 44 5.74 42.35 7.39 40.31 7.39ZM 3.69 22.95C 2.7 22.95 1.9 23.75 1.9 24.74 1.9 25.74 2.7 26.54 3.69 26.54 4.69 26.54 5.49 25.74 5.49 24.74 5.49 23.75 4.69 22.95 3.69 22.95ZM 14.67 11.97C 13.68 11.97 12.88 12.77 12.88 13.77 12.88 14.76 13.68 15.56 14.67 15.56 15.66 15.56 16.47 14.76 16.47 13.77 16.47 12.77 15.66 11.97 14.67 11.97ZM 22.45 19.75C 21.46 19.75 20.66 20.55 20.66 21.55 20.66 22.54 21.46 23.34 22.45 23.34 23.45 23.34 24.25 22.54 24.25 21.55 24.25 20.55 23.45 19.75 22.45 19.75ZM 40.31 1.9C 39.31 1.9 38.51 2.7 38.51 3.69 38.51 4.69 39.31 5.49 40.31 5.49 41.3 5.49 42.1 4.69 42.1 3.69 42.1 2.7 41.3 1.9 40.31 1.9ZM 2.74 32.07C 2.74 32.07 4.64 32.07 4.64 32.07 4.64 32.07 4.64 42.1 4.64 42.1 4.64 42.1 13.72 42.1 13.72 42.1 13.72 42.1 13.72 23.82 13.72 23.82 13.72 23.82 15.62 23.82 15.62 23.82 15.62 23.82 15.62 42.1 15.62 42.1 15.62 42.1 21.97 42.1 21.97 42.1 21.97 42.1 21.97 29.33 21.97 29.33 21.97 29.33 23.87 29.33 23.87 29.33 23.87 29.33 23.87 42.1 23.87 42.1 23.87 42.1 39.36 42.1 39.36 42.1 39.36 42.1 39.36 15.59 39.36 15.59 39.36 15.59 41.26 15.59 41.26 15.59 41.26 15.59 41.26 42.1 41.26 42.1 41.26 42.1 43.97 42.1 43.97 42.1 43.97 42.1 43.97 44 43.97 44 43.97 44 0.03 44 0.03 44 0.03 44 0.03 42.1 0.03 42.1 0.03 42.1 2.74 42.1 2.74 42.1 2.74 42.1 2.74 32.07 2.74 32.07Z" fill="rgb(83,95,117)"/></svg>