<?xml version="1.0" encoding="utf-8"?>
<svg xmlns="http://www.w3.org/2000/svg"
	xmlns:xlink="http://www.w3.org/1999/xlink"
	width="70px" height="48px" viewBox="0 0 35 24">
<path fillRule="evenodd" d="M 33.97 24C 33.97 24 1.03 24 1.03 24 0.46 24-0 23.54-0 22.97-0 22.97-0 22.97-0 22.97-0 22.4 0.46 21.94 1.03 21.94 1.03 21.94 33.97 21.94 33.97 21.94 34.54 21.94 35 22.4 35 22.97 35 22.97 35 22.97 35 22.97 35 23.54 34.54 24 33.97 24ZM 33.97 13.03C 33.97 13.03 1.03 13.03 1.03 13.03 0.46 13.03-0 12.57-0 12-0 12-0 12-0 12-0 11.43 0.46 10.97 1.03 10.97 1.03 10.97 33.97 10.97 33.97 10.97 34.54 10.97 35 11.43 35 12 35 12 35 12 35 12 35 12.57 34.54 13.03 33.97 13.03ZM 33.97 2.06C 33.97 2.06 1.03 2.06 1.03 2.06 0.46 2.06-0 1.6-0 1.03-0 1.03-0 1.03-0 1.03-0 0.46 0.46-0 1.03-0 1.03-0 33.97-0 33.97-0 34.54-0 35 0.46 35 1.03 35 1.03 35 1.03 35 1.03 35 1.6 34.54 2.06 33.97 2.06Z" fill="rgb(83,95,117)"/></svg>