<?xml version="1.0" encoding="utf-8"?>
<svg xmlns="http://www.w3.org/2000/svg"
	xmlns:xlink="http://www.w3.org/1999/xlink"
	width="64px" height="70px" viewBox="0 0 32 35">
<path fillRule="evenodd" d="M 26.78 29.49C 23.83 32.15 20.09 33.59 16.15 33.59 15.89 33.59 15.61 33.58 15.34 33.57 11.95 33.4 8.77 32.18 6.17 30.08 6.17 30.08 6.52 33.94 6.52 33.94 6.57 34.48 6.17 34.94 5.64 34.99 5.62 35 5.59 35 5.56 35 5.07 35 4.64 34.62 4.6 34.12 4.6 34.12 4.03 27.77 4.03 27.77 3.98 27.23 4.37 26.77 4.9 26.72 4.9 26.72 11.25 26.14 11.25 26.14 11.79 26.09 12.26 26.48 12.31 27.02 12.36 27.55 11.96 28.02 11.43 28.07 11.43 28.07 7.23 28.45 7.23 28.45 9.79 30.58 12.96 31.65 16.14 31.65 19.47 31.65 22.82 30.47 25.48 28.06 29.28 24.63 30.89 19.4 29.68 14.43 29.55 13.92 29.87 13.39 30.39 13.26 30.9 13.14 31.42 13.46 31.55 13.97 32.92 19.64 31.09 25.58 26.78 29.49ZM 26.95 8.31C 26.95 8.31 20.57 8.55 20.57 8.55 20.56 8.55 20.55 8.55 20.54 8.55 20.02 8.55 19.59 8.14 19.57 7.62 19.55 7.08 19.97 6.64 20.5 6.62 20.5 6.62 24.65 6.46 24.65 6.46 19.42 2.19 11.68 2.27 6.52 6.94 2.72 10.37 1.12 15.59 2.32 20.57 2.45 21.08 2.13 21.61 1.61 21.73 1.53 21.76 1.46 21.76 1.38 21.76 0.95 21.76 0.56 21.47 0.45 21.03-0.92 15.37 0.91 9.42 5.22 5.51 8.36 2.67 12.43 1.21 16.66 1.43 20.07 1.6 23.27 2.83 25.86 4.95 25.86 4.95 25.71 1 25.71 1 25.69 0.46 26.11 0.02 26.64-0 27.17-0.02 27.62 0.39 27.64 0.93 27.64 0.93 27.88 7.23 27.88 7.23 27.88 7.23 27.88 7.24 27.88 7.24 27.88 7.25 27.88 7.26 27.88 7.28 27.88 7.28 27.88 7.35 27.88 7.35 27.88 7.87 27.47 8.29 26.95 8.31Z" fill="rgb(83,95,117)"/></svg>